@startuml workflows_schema

entity workflows {
id: uuid
name: string
description: string
}

entity workflow_actions {
    id: uuid
    name: string
    description: string
    workflow_id: uuid
}

entity workflow_conditions {
    id: uuid
    name: string
    description: string
    workflow_id: uuid
}

entity workflow_runs {
    id: uuid
    previous_run_id: uuid
    workflow_id: uuid
    status: string
    created_at: datetime
}

entity workflow_transitions {
    from_action_id: uuid
    to_action_id: uuid
    from_condition_id: uuid
}

entity workflow_runs_actions {
    id: uuid
    workflow_run_id: uuid
    workflow_action_id: uuid
    workflow_condition_id: uuid
    created_at: datetime
}

enum action_status {
    PENDING
    RUNNING
    PAUSED
    SKIPPED
    CANCELLED
    FAILED
    SUCCESS
}

enum workflow_status {
    ACTIVE
    PAUSED
    CANCELLED
    FAILED
    SUCCESS
}

workflows ||--o workflow_transitions
workflows ||--o workflow_runs

workflow_transitions ||--o workflow_actions
workflow_transitions ||--o workflow_conditions

workflow_runs_actions ||-- action_status


workflow_runs ||--o workflow_runs_actions
workflow_runs ||--o workflow_runs
workflow_runs ||--o workflow_status

workflow_action || --o workflow_runs_actions
workflow_conditions || --o workflow_runs_actions

@enduml
